<svg width="128" height="128" viewBox="0 0 128 128" fill="none" xmlns="http://www.w3.org/2000/svg">
<path d="M49.0133 37.8213L53.3515 45.5777C53.7771 46.3386 53.7866 47.2641 53.3767 48.0336L52.0594 50.5066C51.311 51.9115 49.477 52.2991 48.2253 51.3169L36.7156 42.2848C35.665 41.4604 34.1684 41.5732 33.2696 42.5613C28.6465 47.6438 15.0186 62.7436 7.32792 72.5169C6.54007 73.5181 7.26203 74.9634 8.5351 74.9634H10.1551C10.9337 74.9634 11.3236 75.9058 10.7731 76.457C10.2226 77.0082 10.6124 77.9506 11.391 77.9506H13.8354C14.7186 77.9506 15.1906 78.9921 14.609 79.6575C14.0275 80.323 14.4995 81.3645 15.3827 81.3645H17.4199C18.0809 81.3645 18.442 82.1363 18.0188 82.6447C17.5957 83.1531 17.9568 83.9249 18.6177 83.9249H21.0891C21.7046 83.9249 22.2835 83.6321 22.6486 83.1359L38.3064 61.8602C39.1991 60.6473 40.9396 60.4644 42.0642 61.4654L46.0418 65.0053C46.9674 65.829 47.1705 67.1984 46.5238 68.2559L35.6448 86.0465C35.1813 86.8045 35.297 87.7818 35.9247 88.4103L36.1816 88.6674C36.8422 89.3289 37.9364 89.2691 38.5345 88.5504C39.0871 87.8865 40.0806 87.7873 40.7437 88.3406C41.4647 88.9422 42.5489 88.7764 43.0577 87.9868L49.5825 77.8611C50.1998 76.9031 51.3755 76.4691 52.4662 76.7968L56.5701 78.0294C57.3674 78.2689 57.3844 79.393 56.5947 79.6566L54.1886 80.4596C53.3047 80.7546 52.651 81.5074 52.4823 82.4248L50.4799 93.308C50.28 94.3946 51.634 95.0569 52.3671 94.2311C52.8009 93.7425 53.5633 93.7425 53.997 94.2311L54.887 95.2335C55.7943 96.2555 57.3893 96.2555 58.2967 95.2335C59.2041 94.2114 60.7991 94.2114 61.7065 95.2335C62.6139 96.2555 64.2089 96.2555 65.1163 95.2335L66.0062 94.2311C66.4399 93.7425 67.2024 93.7425 67.6361 94.2311C68.3693 95.0569 69.7233 94.3946 69.5233 93.308L67.521 82.4248C67.3522 81.5074 66.6985 80.7546 65.8147 80.4596L63.4085 79.6566C62.6188 79.393 62.6358 78.2689 63.4331 78.0294L67.537 76.7968C68.6277 76.4691 69.8034 76.9031 70.4208 77.8611L76.9456 87.9868C77.4543 88.7764 78.5385 88.9422 79.2595 88.3406C79.9227 87.7873 80.9161 87.8865 81.4687 88.5504C82.0668 89.2691 83.161 89.3289 83.8217 88.6674L84.0785 88.4103C84.7062 87.7818 84.8219 86.8045 84.3584 86.0465L73.4794 68.2559C72.8327 67.1984 73.0358 65.829 73.9614 65.0053L77.939 61.4654C79.0637 60.4644 80.8042 60.6473 81.6968 61.8602L97.3547 83.1359C97.7198 83.6321 98.2986 83.9249 98.9141 83.9249H101.386C102.046 83.9249 102.408 83.1531 101.984 82.6447C101.561 82.1363 101.922 81.3645 102.583 81.3645H104.621C105.504 81.3645 105.976 80.323 105.394 79.6575C104.813 78.9921 105.285 77.9506 106.168 77.9506H108.612C109.391 77.9506 109.781 77.0082 109.23 76.457C108.68 75.9058 109.07 74.9634 109.848 74.9634H111.468C112.741 74.9634 113.461 73.5195 112.668 72.5223C104.887 62.7373 90.7152 47.608 85.9268 42.5428C85.0044 41.5671 83.4956 41.4886 82.4623 42.3458L71.5637 51.387C70.3954 52.3562 68.6459 52.0997 67.8043 50.8357L66.2238 48.4621C65.5729 47.4845 65.67 46.1889 66.4594 45.3195L73.6407 37.4105L75.5683 34.7569C76.3904 33.6251 76.1526 32.0422 75.0345 31.2026L72.7832 29.5121C72.2406 29.1047 71.5586 28.9297 70.8872 29.0257L60.4975 30.5118C60.17 30.5586 59.8366 30.5414 59.5156 30.4611L56.2917 29.6541C55.4202 29.436 54.4983 29.6916 53.8631 30.3276L49.4362 34.7598C48.6266 35.5704 48.4538 36.8211 49.0133 37.8213Z" fill="black"/>
<path d="M95.7441 84.3213L95.8877 84.5059C96.6326 85.4014 97.7406 85.9247 98.9141 85.9248H101.386C102.954 85.9245 104.044 84.7097 104.158 83.3643H104.62C106.575 83.3641 107.841 81.6381 107.631 79.9502H108.115C108.16 79.9704 108.206 79.9892 108.251 80.0098C110.761 81.1547 112.713 82.7478 114.107 84.7881C115.502 86.8282 116.221 89.1911 116.265 91.877H107.128C106.952 90.1011 106.196 88.7217 104.86 87.7383C103.525 86.7549 101.712 86.2627 99.4219 86.2627C97.8663 86.2627 96.5528 86.4827 95.4814 86.9229C94.4099 87.3485 93.5871 87.9438 93.0146 88.707C92.4571 89.4702 92.1787 90.3361 92.1787 91.3047C92.1494 92.1118 92.3178 92.8163 92.6846 93.418C93.0662 94.0198 93.5876 94.5411 94.248 94.9814C94.9086 95.4071 95.6721 95.7816 96.5381 96.1045C97.4039 96.4127 98.3283 96.6773 99.3115 96.8975L103.363 97.8662C105.33 98.3065 107.135 98.8931 108.779 99.627C110.423 100.361 111.847 101.263 113.051 102.335C114.254 103.406 115.186 104.669 115.847 106.122C116.522 107.575 116.867 109.241 116.882 111.12C116.867 113.88 116.162 116.272 114.768 118.298C113.388 120.309 111.392 121.872 108.779 122.987C106.181 124.088 103.047 124.639 99.3779 124.639C95.7378 124.639 92.5669 124.08 89.8662 122.965C87.1804 121.849 85.0811 120.199 83.5693 118.012C82.0722 115.81 81.2873 113.087 81.2139 109.843H90.4395C90.5422 111.355 90.975 112.617 91.7383 113.63C92.5162 114.628 93.5511 115.384 94.8428 115.897C96.149 116.396 97.6238 116.646 99.2676 116.646C100.882 116.646 102.285 116.411 103.474 115.941C104.677 115.472 105.609 114.819 106.27 113.982C106.93 113.146 107.26 112.184 107.26 111.098C107.26 110.085 106.959 109.234 106.357 108.544C105.77 107.854 104.905 107.267 103.76 106.782C102.63 106.298 101.242 105.858 99.5986 105.462L94.6885 104.229C90.887 103.304 87.8853 101.858 85.6836 99.8916C83.4819 97.9248 82.3887 95.2752 82.4033 91.9434C82.4018 91.6641 82.4088 91.3883 82.4229 91.1162C83.4239 91.1955 84.4568 90.8612 85.2363 90.0811L85.4932 89.8232C86.6936 88.6213 86.9765 86.7949 86.2285 85.2979L86.0645 85.0029L85.3477 83.832C86.7394 82.244 88.5169 80.9691 90.6816 80.0098C91.1583 79.7986 91.6469 79.6068 92.1475 79.4346L95.7441 84.3213Z" fill="black"/>
<path d="M20.4521 22.5137H39.8057V3.90918H49.3164V32.0498L48.0215 33.3467C46.5796 34.7906 46.2717 37.0173 47.2676 38.7979L49.3164 42.46V49H48.5127L39.8057 42.167V30.374H20.4521V49H10.9189V3.90918H20.4521V22.5137Z" fill="black"/>
</svg>
